<svg xmlns="http://www.w3.org/2000/svg" viewBox="0 0 32 32">
  <rect width="32" height="32" rx="8" fill="#9A3B38"/>
  <rect x="6" y="7" width="20" height="19" rx="3.2" fill="#FFF8F6"/>
  <path d="M6 10h20V9.2C26 7.4 24.6 7 23.2 7H8.8C7.4 7 6 7.4 6 9.2V10Z" fill="#1E6F62"/>
  <rect x="6" y="10" width="20" height="3.2" fill="#1E6F62"/>
  <circle cx="16" cy="10.1" r="2.15" fill="#D4920F"/>
  <circle cx="16.85" cy="9.75" r="1.55" fill="#1E6F62"/>
  <rect x="9" y="16.6" width="4" height="4" rx="1" fill="#9A3B38"/>
  <rect x="14" y="16.6" width="4" height="4" rx="1" fill="#1E6F62"/>
  <rect x="19" y="16.6" width="4" height="4" rx="1" fill="#D4920F"/>
  <rect x="9" y="21.6" width="4" height="2.2" rx="0.7" fill="#2B1F1E" opacity="0.18"/>
  <rect x="14" y="21.6" width="4" height="2.2" rx="0.7" fill="#2B1F1E" opacity="0.18"/>
  <rect x="19" y="21.6" width="4" height="2.2" rx="0.7" fill="#2B1F1E" opacity="0.18"/>
</svg>
